<?xml version="1.0" encoding="utf-8"?>
<!-- Generator: Adobe Illustrator 15.0.0, SVG Export Plug-In . SVG Version: 6.00 Build 0)  -->
<!DOCTYPE svg PUBLIC "-//W3C//DTD SVG 1.1//EN" "http://www.w3.org/Graphics/SVG/1.1/DTD/svg11.dtd">
<svg version="1.1" xmlns="http://www.w3.org/2000/svg" xmlns:xlink="http://www.w3.org/1999/xlink" x="0px" y="0px" width="91px"
	 height="80px" viewBox="0 0 91 80" enable-background="new 0 0 91 80" xml:space="preserve">
<g id="Layer_1" display="none">
	<g display="inline">
		<path d="M41.541,38.011c3.509-0.408,4.298,4.359,4.497,6.849c0.197,2.491,2.293,25.726,2.293,25.726l28.123-13.629L75,35.831
			v-5.589c0,0,3,2.454,3,7.36s0,22.487,0,22.487L48.885,74.673l-8.8-3.407c0,0-1.539-7.633-1.129-9.948
			c0.41-2.317,3.662,2.589,3.252-0.273c-0.41-2.862-2.191-15.265-2.191-15.265S38.031,38.42,41.541,38.011z"/>
		<path d="M68.61,39.439c-0.331,2.388-2.242,4.097-4.269,3.815c-2.027-0.281-3.402-2.444-3.071-4.832
			c0.33-2.388,2.241-4.096,4.269-3.814C67.565,34.889,68.941,37.051,68.61,39.439z M65.588,35.752
			c-1.458-0.201-2.834,1.028-3.071,2.745c-0.238,1.719,0.751,3.275,2.209,3.477c1.459,0.203,2.834-1.026,3.072-2.744
			C68.035,37.511,67.046,35.954,65.588,35.752z"/>
		<polyline points="43.853,17.33 46.106,18.131 68.726,13.752 69.121,23.272 50.911,27.75 47.436,27.75 44.788,19.525 44,18.522 
			44,16.75 		"/>
		<path d="M63.075,30.209c0,0-6.647,3.379-5.489,9.284c1.158,5.906,5.414,6.15,5.414,6.15v1.158c0,0-7.373-0.749-7.646-7.019
			c-0.271-6.27,4.4-8.586,4.4-8.586l3.375-1.5"/>
		<path d="M61.216,34.544c2.503-0.911,2.503-0.911,2.503-0.911s1.984,0.129,1.017,0.597c-1.257,0.606-4.774,2.711-3.515,5.622
			c2.431,5.609-2.132,0-2.132,0S58.712,35.454,61.216,34.544z"/>
		<path d="M38.438,19.136l3.478,0.205l2.591,7.087l0.681,11.822c0,0-1.846-2.071-3.543-1.67c-1.698,0.401-2.044,1.408-2.044,1.408
			L38.438,19.136z"/>
		<polygon points="52.546,31.061 50.503,30.242 51.524,50.822 54.317,49.868 		"/>
		<path d="M71.354,46.75h1.841c0,0-0.204-24.437-0.409-27.981c-0.204-3.542-2.249-5.669-2.249-5.669L71.354,46.75z"/>
		<polygon points="49.684,58.455 72.444,49.323 75.647,52.867 48.457,64.859 		"/>
		<polygon points="22.52,20.294 25,19.136 25,21.453 27.154,19.136 25.812,21.453 28.071,19.749 26.68,21.453 29.528,20.294 
			28.43,22.202 30.606,21.385 30.01,23.02 32,21.385 32,23.702 33.244,21.418 32.532,23.702 34,22.339 34,23.702 35,22.475 
			35,23.702 36,22.066 36,24.928 37,23.429 37,25.337 38.724,23.974 41,54.366 41,54.75 39.462,54.75 38.438,54.75 37.418,54.75 
			35.987,54.75 35.578,54.75 34.76,54.75 34.147,54.75 32.512,54.75 31.404,54.557 30.195,53.75 29.445,53.75 28.287,54.158 
			27.196,54.195 25.834,54.212 25.131,54.153 		"/>
		<polygon points="26.907,15.504 47.436,10.75 48.457,10.75 48.969,11.92 49.991,12.75 50.503,12.75 51.82,14.136 53,14.911 
			53,13.75 53.364,13.75 54.317,14.636 44.248,16.792 		"/>
		<path d="M15.953,16.751c-0.477-2.453,4.088,0,4.088,0l4.838,44.293l15.604-5.247l1.285,2.309l-16.753,6.754l-6.542-2.861
			c0,0-1.09-7.359-0.409-8.723s2.044-0.136,2.044-0.136S16.429,19.204,15.953,16.751z"/>
		<polygon points="19,13.752 32.434,10.618 46.442,9.664 47.519,10.346 20.482,15.661 19,14.779 		"/>
	</g>
</g>
<g id="Layer_2" display="none">
	<g display="inline">
		<path d="M27,32.9c0-1.158,0-4.906,0-4.906l2.211-1.294l0.491-2.794l21.337,3.066l10.021-11.449l2.967,10.086
			c0,0-10.375,4.497-11.602,4.497s-0.106-1.482-2.053-1.771c-1.945-0.289-20.175-2.998-20.175-2.998l-0.82,2.998
			c0,0,17.718,2.862,18.67,3.135c0.954,0.272,0.789,5.042,0.517,5.929C48.292,38.283,27,34.059,27,32.9z"/>
		<path d="M25.288,33.786c2.044,1.362,23.267,4.498,24.532,5.043c1.265,0.545,2.288,1.098,2.317,2.181
			c0.029,1.081,1.457,28.218,0.817,29.575c-0.64,1.354-1.457,1.354-2.59,1.089c-1.132-0.266-11.38-2.862-11.38-2.862
			s6.473-1.498,7.974-5.996c1.498-4.497,0.682-12.538-1.16-16.014c-1.839-3.476-5.792-7.973-12.742-7.7
			c-5.61,0.221-7.905,2.453-7.905,2.453S24.635,33.351,25.288,33.786z"/>
		<path d="M36.716,54.3c2.72,7.422,0.329,15.104-5.342,17.158c-5.67,2.054-12.473-2.297-15.193-9.719
			c-2.72-7.423-0.328-15.103,5.342-17.157C27.194,42.528,33.996,46.879,36.716,54.3z M22.147,47.016
			c-4.766,1.727-6.776,8.182-4.49,14.419s8.003,9.895,12.769,8.168c4.766-1.726,6.775-8.183,4.489-14.42
			C32.63,48.946,26.914,45.289,22.147,47.016z"/>
		<path d="M20.927,44.073l4.031-1.837c0,0,1.011-1.086,2.647-0.817c8.585-0.043,12.198,1.836,15.673,8.041
			c4.082,7.287-2.589,16.354-2.589,16.354l-6.507,3.955c0,0,6.711-4.159,3.861-15.607c-1.989-6.951-6.486-9.68-10.438-10.426
			C22.65,42.8,20.927,44.073,20.927,44.073z"/>
		<path d="M52.887,70.585c0,0,2.554-0.702,2.317-2.727c-0.237-2.025-0.614-3.271,0-5.52c0.613-2.249,7.291-4.975,10.018-5.93
			c2.725-0.953,2.59-3.618,2.59-3.618s0.954-20.912-1.228-20.095c-2.181,0.817-0.817-2.045-1.227-3.816
			c-0.408-1.771,1.907-2.357,1.907-2.357s6.46,0.786,7.769,1.268c1.31,0.481,1.773,0,2.454,2.18c0.681,2.182,0.562,21.398,0,23.374
			c-0.562,1.975-0.126,1.926-1.228,2.793c-1.101,0.868-3.157,3.544-8.995,7.088c-5.836,3.544-14.145,8.588-14.145,8.588
			L52.887,70.585z"/>
		<path d="M61.575,13.344c0,0,2.035,11.081,3.863,12.13c1.826,1.049,7.688-0.818,8.369-2.862c0.682-2.045,0-7.087,0-7.087
			l-1.772-1.09c-0.27-1.09,0.683-1.499-0.272-2.181c-0.954-0.682-5.725,0.818-5.725,0.818l-1.431-0.818L61.575,13.344z"/>
		<path d="M30.999,23.292l12.817-9.676l15.954,1.363c0,0-10.204,1.315-14.788,2.044C40.398,17.752,30.999,23.292,30.999,23.292z"/>
		<polygon points="48.116,11.871 52.001,10.618 55,10.938 57.316,10.618 69.719,11.959 57.861,11.462 53.909,12.458 		"/>
		<polygon points="52.887,36.376 63.176,32.151 65.421,33.77 66.72,34.263 58.918,38.557 58.134,40.737 54.862,39.783 
			54.182,38.692 51.865,38.147 		"/>
		<polygon points="21.876,43.293 20.925,39.221 19.29,34.668 20.927,31.75 24.948,31.75 24.198,37.352 24.334,41.293 		"/>
		<ellipse transform="matrix(0.9245 -0.3812 0.3812 0.9245 -19.4362 15.594)" cx="29.641" cy="56.854" rx="4.959" ry="7.637"/>
	</g>
</g>
<g id="Layer_3" display="none">
	<g display="inline">
		<path d="M39.326,29.477c-0.739-1.124,0.569-9.247,1.523-11.33c0.956-2.082,3.889-8.714,4.718-8.726
			c0.829-0.012,15.027-0.237,16.152,0c1.124,0.236,3.11,5.158,5.029,8.608c1.495,2.69,1.917,10.916,1.42,11.448
			C66.998,30.73,40.065,30.602,39.326,29.477z"/>
		<path d="M72.028,51.615c0,10.234-8.427,18.529-18.821,18.529c-10.396,0-18.821-8.295-18.821-18.529
			c0-10.233,8.426-18.528,18.821-18.528C63.602,33.087,72.028,41.382,72.028,51.615z M53.248,36.694
			c-8.411,0-15.23,6.714-15.23,14.995c0,8.28,6.819,14.993,15.23,14.993s15.23-6.713,15.23-14.993
			C68.479,43.408,61.659,36.694,53.248,36.694z"/>
		<path d="M83.315,24.034c0.71,2.899-2.357,1.894-5.266,1.894s-5.266,0.532-5.266-1.894c0-0.85,2.357-1.539,5.266-1.539
			S83.113,23.209,83.315,24.034z"/>
		<path d="M39.073,24.843c0.036,3.162-1.084,2.924-7.067,2.889c-6.44-0.039-7.855,0.258-7.067-2.889
			c0.315-1.257,3.164-2.348,7.067-2.348C35.909,22.496,39.058,23.555,39.073,24.843z"/>
		<path d="M69.146,29.036c0,0-0.592,0.213,0.458-1.3c1.051-1.513,3.188-1.646,3.188-1.646s1.643,0.481,5.313,0.485
			c3.672,0.004,5.315-0.508,5.315-0.508l0.724,1.457c0,0,0.828-0.473,1.716,0c0.887,0.474,0.709,2.13,0.709,2.13s0,0,0.651,0.716
			c1.612,1.77,1.421,34.428,0.709,37.386c-0.709,2.958-0.117,2.013-0.709,2.958c-0.591,0.947-17.158,0.587-17.158,0.587l0.799-4.018
			c0,0,5.541-10.416,4.186-20.396C73.902,38.463,69.146,29.036,69.146,29.036z"/>
		<circle cx="30.925" cy="42.346" r="3.461"/>
		<path d="M38.143,28.912l-0.976-2.162H25.865c0,0-0.282,2.133-1.125,2.162c-0.843,0.031-19.05,0.025-20.352,1.086
			s-1.302,1.245-1.065,3.729c0.236,2.485-0.118,2.936,2.012,4.531c2.129,1.599,0.947,0.633,4.259,0.724
			c3.313,0.093,2.485-1.778,6.272-2.369c3.786-0.592,18.46,1.641,19.051,0.129c0.59-1.513-0.355-3.679,1.894-5.217
			C39.06,29.987,38.143,28.912,38.143,28.912z"/>
		<path d="M12.258,25.47c0,0,0.076-0.562,5.312-0.645c5.236-0.084,5.43,0.77,5.43,0.77v2.155h-5.121h-5.68L12.258,25.47z"/>
		<path d="M3.174,37.671c0,0,1.215,1.924,2.752,2.633c1.539,0.71,4.542,0.782,6.076-0.118c1.535-0.9,2.998-0.924,2.998-0.924
			s0,25.536,0,27.134s19.189,0.65,19.189,0.65l1.459,3.668c0,0-27.188,1.725-28.823,0.654s-2.58-1.363-3.645-3.256
			C2.116,66.218,3.174,37.671,3.174,37.671z"/>
		<path d="M34.386,60.893c0,0,0.541,8.327,2.198,9.607s32.414,0.979,32.414,0.979l1.863-8.811
			c-8.696,10.118-22.897,7.767-26.23,6.39C39.187,66.81,34.386,60.893,34.386,60.893z"/>
		<circle cx="31.102" cy="59.739" r="2.929"/>
		<line fill="none" stroke="#000000" stroke-width="7" stroke-miterlimit="10" x1="16.5" y1="38.75" x2="16.5" y2="66.75"/>
		<g>
			<path d="M31.829,46.089c0,3.46-1.065,8.519,1.065,11.979c0.266-4.259,0-9.316-0.532-13.311"/>
		</g>
	</g>
</g>
<g id="Layer_4">
	<ellipse fill="#2C2C2C" cx="18.405" cy="27.758" rx="2.875" ry="1.544"/>
	<ellipse fill="#2C2C2C" cx="23.259" cy="25.031" rx="2.004" ry="1.076"/>
	
		<ellipse transform="matrix(0.9774 -0.2112 0.2112 0.9774 -5.0542 3.6413)" fill="#2C2C2C" cx="14.521" cy="25.483" rx="2.003" ry="1.075"/>
	<g>
		<path fill="#2C2C2C" d="M10.332,26.085c0,2.432,0.655,4.772,3.088,5.801c1.642,0.821,3.869,0.942,5.67,0.893
			c1.568-0.044,3.016-0.53,4.433-1.176c0.947-0.431,2.231-1.854,2.831-2.691c1.787-2.492,4.471-4.374,7.465-5.072
			c2.433-0.562,4.866-1.404,6.457-3.369c-0.468,1.778-1.311,3.462-1.778,5.333c-0.468,1.871-0.656,3.461-1.404,5.239
			c-0.655,1.311-0.749,2.247-2.153,2.621c-2.409,0.602-5.322-0.248-7.579,0.865c-4.79,2.363-11.761,4.429-16.737,1.267
			c-1.647-1.046-2.021-2.787-1.936-4.62c0.044-0.941,0.196-1.877,0.276-2.816c0.107-1.244,0.579-1.365,1.273-2.368"/>
	</g>
	<path fill="#2C2C2C" d="M37.114,71.215c0,0-3.465-13.358-3.666-22.598c-0.201-9.24,5.668-25.26,6.827-28.775
		c1.158-3.516,3.97-9.542,4.522-9.542s0.703,3.264,0.553,4.469c-0.151,1.205-3.816,5.523-4.52,6.83
		c-0.703,1.306-4.971,21.091-4.821,27.017C36.161,54.542,37.114,71.215,37.114,71.215z"/>
	<path fill="#2C2C2C" d="M70.209,71.215c0,0,3.464-13.358,3.665-22.598c0.201-9.24-5.668-25.26-6.827-28.775
		c-1.157-3.516-3.97-9.542-4.522-9.542c-0.552,0-0.702,3.264-0.552,4.469c0.151,1.205,3.816,5.523,4.519,6.83
		c0.704,1.306,4.972,21.091,4.821,27.017S70.209,71.215,70.209,71.215z"/>
	<path fill="#2C2C2C" d="M70.077,48.175c0,9.104-7.38,16.482-16.483,16.482c-9.103,0-16.482-7.379-16.482-16.482
		c0-9.103,7.38-16.482,16.482-16.482C62.697,31.692,70.077,39.072,70.077,48.175z M53.69,36.865c-6.323,0-11.449,5.126-11.449,11.45
		c0,6.322,5.126,11.447,11.449,11.447c6.324,0,11.449-5.125,11.449-11.447C65.14,41.991,60.015,36.865,53.69,36.865z"/>
	<g>
		<g>
			<path fill="#2C2C2C" d="M10.822,27.874c3.219-5.116,10.051-4.189,15.199-4.208c4.189-0.016,8.378-0.061,12.568-0.067
				c1.112-0.001,1.476-1.438,0.166-1.436c-6.708,0.01-13.524-0.258-20.214,0.226c-4.008,0.29-7.414,1.826-9.57,5.253
				C8.395,28.558,10.367,28.598,10.822,27.874L10.822,27.874z"/>
		</g>
	</g>
	<g>
		<path fill="#2C2C2C" d="M11.705,27.617c0.678,0.377,1.205-0.82,1.883-0.594c0.904,0.301,0.979,1.732,1.732,2.26
			c1.657,1.204,3.842,1.204,5.574,0.301c1.431-0.754,2.637-1.883,4.067-2.712c1.733-0.979,3.692-1.581,5.65-1.958
			c-2.411,0.678-3.917,1.81-5.349,3.616c-1.205,1.582-2.146,2.276-4.104,2.804c-3.54,0.904-7.739,0.552-9.207-2.576"/>
	</g>
	<g>
		<path fill="#2C2C2C" d="M46.615,15.137c-1.521,3.375-5.362,5.258-5.814,12.264c4.746,1.58,8.656,2.876,13.401,3.102
			c1.808,0,4.13-0.315,5.712-0.541c0.678-0.227,6.905-1.656,6.905-1.883c0,0.227-0.202-2.141-0.656-3.229
			c-0.794-1.902-1.098-3.633-2.484-5.245c-1.094-1.269-2.176-2.602-2.917-4.114c-0.781-1.596,0.962-3.668,0.873-5.404
			c0.004,0.093-3.365-0.753-3.634-0.811c-1.166-0.251-2.361-0.341-3.552-0.406c-2.097-0.113-2.821,0.083-6.348,0.844
			C44.095,10.301,47.204,10.301,46.615,15.137"/>
	</g>
	<path fill="#2C2C2C" d="M8.239,34.054c0,0-0.745,10.043-0.703,18.078c0.041,8.035-0.062,19.083,0.703,19.886
		c0.765,0.804,0.035,1.909,8.253,1.808c8.218-0.1,5.514-0.201,7.958-1.808s11.96-0.803,11.96-0.803l-0.904-5.123
		c0,0-11.249-4.42-11.249-12.149c0-14.673,4.343-14.007,4.343-14.007s1.849-4.305-0.181-4.275
		c-2.031,0.029-5.486,3.816-11.932,3.516S8.239,34.054,8.239,34.054z"/>
	<path fill="#2C2C2C" d="M79.175,22.306c0.224,1.805-2.983,0.9-6.205,0.248c-3.221-0.652-6.025-1.345-5.46-2.608
		c0.361-0.806,2.929-1.04,6.15-0.388C76.881,20.21,79.066,21.43,79.175,22.306z"/>
	<path fill="#2C2C2C" d="M68.149,21.65c0,0,3.604,1.542,5.976,1.717c2.373,0.174,4.722,0.041,5.323,0.392
		c0.603,0.352,0.503,1.657,1.558,3.716c1.054,2.058,1.054,11.751,1.255,20.086c0.201,8.337-1.356,19.686-2.159,21.343
		c-0.804,1.657-9.391,2.311-9.391,2.311l1.029-4.345c0,0,8.198-10.435,7.759-19.158c-0.652-12.955-1.808-17.375-3.516-18.229
		c-1.708-0.853-5.744-0.971-5.906-1.505C69.914,27.442,68.149,21.65,68.149,21.65z"/>
	<path fill="#2C2C2C" d="M37.919,71.215c0.552,0.652,11.5,0.703,17.275,0.803c5.774,0.1,13.96-0.1,14.312-0.803
		c0.352-0.704,0.571-4.521,0.571-4.521s0,3.565-15.084,3.816c-17.498,0.292-17.477-4.419-17.477-4.419S37.366,70.562,37.919,71.215z
		"/>
</g>
</svg>
