<?xml version="1.0" encoding="utf-8"?>
<!-- Generator: Adobe Illustrator 15.0.0, SVG Export Plug-In . SVG Version: 6.00 Build 0)  -->
<!DOCTYPE svg PUBLIC "-//W3C//DTD SVG 1.1//EN" "http://www.w3.org/Graphics/SVG/1.1/DTD/svg11.dtd">
<svg version="1.1" xmlns="http://www.w3.org/2000/svg" xmlns:xlink="http://www.w3.org/1999/xlink" x="0px" y="0px" width="430.5px"
	 height="329.5px" viewBox="0 0 430.5 329.5" enable-background="new 0 0 430.5 329.5" xml:space="preserve">
<g id="Layer_1" display="none">
	<g display="inline">
		<path d="M197.166,146.5c17.168-2,21.024,21.318,21.991,33.5s11.219,125.834,11.219,125.834l136.645-66.667L359,135.834V108.5
			c0,0,15,12,15,36s0,110,0,110l-141.666,71.334l-42.667-16.667c0,0-7.333-37.334-5.333-48.667s18.001,12.671,16-1.333
			S189.667,184.5,189.667,184.5S179.998,148.5,197.166,146.5z"/>
		<path d="M329.577,153.486c-1.617,11.681-10.966,20.036-20.88,18.662c-9.915-1.373-16.641-11.954-15.022-23.635
			c1.617-11.68,10.966-20.035,20.882-18.662C324.471,131.225,331.195,141.806,329.577,153.486z M314.794,135.45
			c-7.135-0.988-13.861,5.023-15.024,13.429c-1.165,8.403,3.675,16.018,10.809,17.005c7.133,0.989,13.86-5.023,15.024-13.428
			S321.928,136.438,314.794,135.45z"/>
		<polyline points="207.879,45.333 219.197,49.25 330,27.833 332,77.5 243,102.5 226,102.5 212.455,59.167 208,51.167 208,42.5 		
			"/>
		<path d="M302.5,108.333c0,0-33.579,16.526-27.916,45.417S300,183.834,300,183.834v5.666c0,0-35-3.666-36.333-34.333
			s22.053-42,22.053-42l16.78-7.333"/>
		<path d="M293.406,129.537c12.247-4.453,12.247-4.453,12.247-4.453s9.704,0.632,4.973,2.916c-6.15,2.971-23.359,13.262-17.191,27.5
			c11.887,27.441-10.435,0-10.435,0S281.159,133.99,293.406,129.537z"/>
		<path d="M181.988,54.166l17.012,1l12.667,34.668L215,147.667c0,0-9.026-10.128-17.333-8.167s-10,6.89-10,6.89L181.988,54.166z"/>
		<polygon points="251,112.5 241,108.5 246,209.167 259.667,204.5 		"/>
		<path d="M343,193.5h9c0,0-1-121.666-2-139c-1-17.333-11-26.667-11-26.667L343,193.5z"/>
		<polygon points="237,246.5 348.333,201.833 364,219.167 231,277.833 		"/>
		<polygon points="102.999,59.834 114,54.166 114,65.5 125.666,54.166 119.666,65.5 131,57.166 124.334,65.5 138.334,59.833 
			133,69.166 143.666,65.167 140.5,73.166 150,65.167 150,76.5 156.334,65.333 152.833,76.5 160,69.834 160,76.5 165,70.5 165,76.5 
			170,68.5 170,82.5 175,75.166 175,84.5 182.154,77.834 192,226.5 192,233.5 187,233.5 181.988,236.5 177,236.5 170,236.5 
			168,236.5 164,236.5 161,233.5 153,233.5 147.583,233 141.666,229.5 138,229.5 132.334,228.5 127,227.167 120.334,226.5 
			116.334,225.833 		"/>
		<polygon points="125.583,39.583 226,19.5 231,19.5 233.5,24.333 238.5,27.5 241,27.5 245.833,32 250,33.5 250,35.5 255,35.5 
			259.667,36 210.408,46.209 		"/>
		<path d="M72,42.5c-2.333-12,20,0,20,0l23.667,216.667L192,233.5l6.28,11.294l-81.946,33.039l-32-14c0,0-5.333-35.999-2-42.666
			s10-0.667,10-0.667S74.333,54.5,72,42.5z"/>
		<polygon points="84,27.833 151.167,12.5 220.416,7.833 226.042,11.167 92.521,37.167 84,32.854 		"/>
	</g>
</g>
<g id="Layer_2" display="none">
	<g display="inline">
		<path d="M121,121.5c0-5.667,0-24,0-24l13.333-6.334L138,77.5l105,15l49.333-56L307,85.833c0,0-50.667,22-56.667,22
			s-0.481-7.252-10-8.667S141.667,84.5,141.667,84.5l-4,14.667c0,0,86.667,14,91.333,15.333s1.333,24.667,0,29
			S121,127.167,121,121.5z"/>
		<path d="M117.667,125.833c10,6.667,113.812,22,120,24.667c6.188,2.667,11.188,5.374,11.333,10.667s7.129,138.034,4,144.667
			s-7.129,6.633-12.667,5.333s-55.666-14-55.666-14s31.667-7.333,39-29.333S227,206.5,218,189.5s-28.333-39-62.333-37.667
			c-27.442,1.076-38.667,12-38.667,12S114.471,123.703,117.667,125.833z"/>
		<path d="M173.567,226.181c13.307,36.304,1.608,73.879-26.13,83.926c-27.738,10.049-61.011-11.235-74.317-47.54
			c-13.306-36.303-1.606-73.877,26.132-83.926C126.989,168.594,160.262,189.877,173.567,226.181z M102.303,190.545
			c-23.312,8.444-33.146,40.023-21.962,70.533c11.183,30.513,39.147,48.401,62.459,39.956c23.312-8.444,33.145-40.024,21.96-70.536
			C153.579,199.987,125.614,182.1,102.303,190.545z"/>
		<path d="M96.333,176.152l19.717-8.986c0,0,4.946-5.309,12.95-4c42-0.207,59.667,8.986,76.666,39.334
			c19.969,35.651-12.666,80-12.666,80l-31.827,19.343c0,0,32.827-20.343,18.887-76.343c-9.727-34-31.727-47.348-51.06-51
			C104.765,169.922,96.333,176.152,96.333,176.152z"/>
		<path d="M252.667,305.833c0,0,12.492-3.429,11.333-13.333s-3-16,0-27s35.667-24.333,49-29s12.667-17.704,12.667-17.704
			s4.667-102.296-6-98.296s-4-10-6-18.667S323,90.296,323,90.296s31.597,3.847,38,6.204s8.667,0,12,10.667s2.748,104.674,0,114.334
			s-0.615,9.424-6,13.666s-15.45,17.334-44,34.667s-69.194,42.009-69.194,42.009L252.667,305.833z"/>
		<path d="M295.166,25.833c0,0,9.953,54.203,18.894,59.333s37.607-4,40.94-14s0-34.666,0-34.666l-8.667-5.334
			c-1.321-5.327,3.334-7.332-1.333-10.666s-28,4-28,4l-7-4L295.166,25.833z"/>
		<path d="M145.599,74.5L208.3,27.167l78.033,6.667c0,0-49.909,6.433-72.333,10S145.599,74.5,145.599,74.5z"/>
		<polygon points="229.333,18.631 248.333,12.5 263,14.065 274.333,12.5 335,19.065 277,16.631 257.667,21.5 		"/>
		<polygon points="252.667,138.5 303,117.833 313.977,125.751 320.333,128.166 282.166,149.166 278.333,159.833 262.333,155.166 
			259,149.833 247.667,147.166 		"/>
		<polygon points="100.975,172.334 96.321,152.417 88.327,130.958 96.333,117.5 116,117.5 112.333,144.093 113,162.959 		"/>
		<ellipse transform="matrix(0.9244 -0.3813 0.3813 0.9244 -80.5091 71.0182)" cx="138.96" cy="238.674" rx="24.26" ry="37.351"/>
	</g>
</g>
<g id="Layer_3" display="none">
	<g display="inline">
		<path d="M186.332,104.753c-3.617-5.499,2.78-45.238,7.453-55.422c4.674-10.184,19.021-42.627,23.08-42.688
			c4.06-0.06,73.51-1.158,79.01,0c5.498,1.158,15.213,25.231,24.6,42.109c7.317,13.158,9.382,53.396,6.946,56.001
			C321.688,110.884,189.949,110.251,186.332,104.753z"/>
		<path d="M346.296,213.046c0,50.06-41.22,90.641-92.065,90.641c-50.846,0-92.064-40.581-92.064-90.641
			c0-50.058,41.218-90.639,92.064-90.639C305.076,122.407,346.296,162.988,346.296,213.046z M254.433,140.061
			c-41.145,0-74.5,32.839-74.5,73.345c0,40.508,33.354,73.346,74.5,73.346c41.144,0,74.498-32.838,74.498-73.346
			C328.931,172.899,295.576,140.061,254.433,140.061z"/>
		<path d="M401.509,78.128c3.472,14.182-11.532,9.261-25.759,9.261c-14.225,0-25.757,2.604-25.757-9.261
			c0-4.156,11.532-7.524,25.757-7.524C389.977,70.604,400.521,74.091,401.509,78.128z"/>
		<path d="M185.095,82.085c0.174,15.467-5.305,14.309-34.57,14.131c-31.504-0.192-38.426,1.26-34.57-14.131
			c1.541-6.151,15.478-11.481,34.57-11.481C169.617,70.604,185.024,75.785,185.095,82.085z"/>
		<path d="M332.194,102.594c0,0-2.894,1.047,2.243-6.355c5.138-7.402,15.593-8.058,15.593-8.058s8.03,2.357,25.99,2.375
			c17.963,0.017,26.004-2.484,26.004-2.484l3.535,7.132c0,0,4.052-2.316,8.394,0c4.34,2.315,3.472,10.418,3.472,10.418
			s0,0,3.185,3.496c7.887,8.66,6.945,168.413,3.472,182.883c-3.472,14.471-0.578,9.84-3.472,14.471
			c-2.895,4.631-83.93,2.869-83.93,2.869l3.907-19.655c0,0,27.104-50.947,20.474-99.77
			C355.463,148.709,332.194,102.594,332.194,102.594z"/>
		<circle cx="145.236" cy="167.699" r="16.93"/>
		<path d="M180.544,106.034l-4.776-6.534h-55.277c0,0-1.38,6.389-5.503,6.534s-93.185-1.897-99.552,3.29
			c-6.367,5.186-6.367,5.083-5.209,17.239c1.158,12.153-0.579,13.84,9.84,21.654s4.631,2.841,20.838,3.289
			c16.207,0.447,12.155-8.826,30.677-11.721c18.522-2.895,90.302,7.972,93.189,0.572c2.888-7.4-1.737-16.004,9.261-23.528
			C185.029,109.304,180.544,106.034,180.544,106.034z"/>
		<path d="M53.927,88.247c0,0,1.134-4.298,26.748-4.706C106.287,83.135,108,85.763,108,85.763V102.5H81.421H53.638L53.927,88.247z"
			/>
		<path d="M9.494,144.836c0,0,5.942,9.406,13.467,12.879c7.524,3.473,22.038,3.827,29.544-0.578
			C60.012,152.733,67,152.616,67,152.616s0,124.914,0,132.729c0,7.813,94.033,3.183,94.033,3.183l7.223,17.944
			c0,0-132.946,8.434-140.948,3.197c-8.003-5.235-12.593-6.67-17.803-15.931C4.297,284.477,9.494,144.836,9.494,144.836z"/>
		<path d="M162.167,258.43c0,0,2.649,40.733,10.751,46.992c8.104,6.259,158.553,4.787,158.553,4.787l9.116-43.097
			c-42.543,49.488-112.01,37.988-128.308,31.255C185.652,287.37,162.167,258.43,162.167,258.43z"/>
		<circle cx="146.104" cy="252.785" r="14.325"/>
		<line fill="none" stroke="#000000" stroke-width="7" stroke-miterlimit="10" x1="73.5" y1="152.5" x2="73.5" y2="290.5"/>
		<g>
			<path d="M149.659,186.01c0,16.93-5.209,41.673,5.209,58.602c1.303-20.837,0-45.579-2.604-65.114"/>
		</g>
	</g>
</g>
<g id="Layer_4">
	<g>
		<ellipse cx="83.997" cy="96.346" rx="14.061" ry="7.553"/>
		<ellipse cx="107.739" cy="83.004" rx="9.8" ry="5.264"/>
		<ellipse transform="matrix(0.9775 -0.2111 0.2111 0.9775 -16.5263 15.6438)" cx="64.997" cy="85.215" rx="9.8" ry="5.264"/>
		<g>
			<path d="M44.504,88.158c0,11.901,3.204,23.344,15.106,28.379c8.032,4.016,18.924,4.609,27.735,4.364
				c7.667-0.214,14.752-2.592,21.683-5.747c4.632-2.109,10.911-9.068,13.848-13.166c8.74-12.197,21.871-21.398,36.517-24.816
				c11.901-2.746,23.801-6.866,31.583-16.478c-2.289,8.697-6.409,16.936-8.697,26.09c-2.289,9.154-3.204,16.936-6.866,25.632
				c-3.204,6.408-3.662,10.985-10.527,12.816c-11.784,2.947-26.034-1.214-37.076,4.233c-23.433,11.56-57.528,21.664-81.875,6.199
				c-8.054-5.116-9.881-13.636-9.467-22.599c0.213-4.612,0.955-9.185,1.351-13.782c0.524-6.084,2.83-6.677,6.228-11.584"/>
		</g>
		<path d="M175.515,308.917c0,0-16.949-65.342-17.931-110.54c-0.982-45.199,27.727-123.561,33.392-140.755
			c5.666-17.194,19.421-46.673,22.124-46.673c2.702,0.001,3.439,15.967,2.702,21.863s-18.669,27.02-22.108,33.408
			c-3.439,6.387-24.318,103.169-23.581,132.157C170.85,227.362,175.515,308.917,175.515,308.917z"/>
		<path d="M337.396,308.917c0,0,16.947-65.342,17.931-110.54c0.981-45.199-27.727-123.561-33.393-140.755
			c-5.665-17.194-19.421-46.673-22.123-46.673c-2.702,0.001-3.439,15.967-2.702,21.863s18.669,27.02,22.108,33.408
			c3.438,6.387,24.317,103.169,23.581,132.157C342.062,227.362,337.396,308.917,337.396,308.917z"/>
		<path d="M336.752,196.219c0,44.528-36.098,80.626-80.626,80.626S175.5,240.747,175.5,196.219
			c0-44.527,36.098-80.625,80.626-80.625S336.752,151.691,336.752,196.219z M256.598,140.896c-30.93,0-56.002,25.073-56.002,56.003
			c0,30.931,25.073,56.004,56.002,56.004c30.932,0,56.005-25.073,56.005-56.004C312.603,165.969,287.529,140.896,256.598,140.896z"
			/>
		<g>
			<g>
				<path d="M47.001,96.928c12.229-21.953,40.978-20.467,62.815-20.488c24.3-0.024,48.599-0.358,72.899-0.367
					c5.56-0.002,7.378-7.182,0.828-7.18c-26.583,0.009-53.164,0.379-79.747,0.367c-13.765-0.006-28.833,0.41-41.846,5.388
					c-2.827,1.082-5.409,3.1-7.918,4.75c-2.215,1.458-4.634,2.26-6.708,3.959c-3.994,3.273-7.084,7.936-9.575,12.408
					C35.079,100.561,44.901,100.698,47.001,96.928L47.001,96.928z"/>
			</g>
		</g>
		<g>
			<path d="M51.219,90.762c3.316,1.842,5.895,0.882,9.211,1.987c4.422,1.474,4.79,8.475,8.475,11.054
				c8.106,5.896,18.792,5.896,27.267,1.474c7.001-3.685,12.896-9.212,19.897-13.265c8.475-4.79,18.055-7.738,27.635-9.58
				c-11.791,3.316-17.318,12.16-24.319,21.003c-5.896,7.738-11.054,11.054-20.634,13.633c-17.318,4.421-47.901,1.755-51.217-20.722"
				/>
		</g>
		<g>
			<path d="M217.096,34.604c-7.436,16.508-26.228,25.721-28.438,59.987c23.213,7.737,47.229,14.071,70.442,15.176
				c8.842,0,20.2-1.543,27.938-2.648c3.316-1.105,38.671-8.104,38.671-9.209c0,1.105-0.987-10.471-3.208-15.794
				c-3.882-9.306-5.369-17.771-12.157-25.66c-5.343-6.208-10.643-12.726-14.265-20.122c-3.824-7.805-0.184-17.941-0.623-26.434
				c0.023,0.456-16.461-3.685-17.773-3.967c-5.707-1.226-11.557-1.667-17.374-1.983c-10.258-0.558-13.798,0.404-31.054,4.126
				C209.66,10.949,219.979,10.949,217.096,34.604"/>
		</g>
		<path d="M34.27,127.139c0,0-3.641,49.126-3.439,88.433c0.202,39.306-0.307,93.345,3.439,97.274
			c3.746,3.931,0.171,9.335,40.371,8.844c40.201-0.492,26.977-0.982,38.932-8.844c11.954-7.86,58.504-3.93,58.504-3.93
			l-4.422-25.058c0,0-55.025-21.625-55.025-59.43c0-71.775,21.246-68.516,21.246-68.516s9.046-21.059-0.888-20.914
			s-26.835,18.668-58.363,17.195C43.097,150.721,34.27,127.139,34.27,127.139z"/>
		<path d="M381.258,69.676c1.092,8.825-14.593,4.398-30.352,1.21c-15.757-3.188-29.478-6.576-26.71-12.755
			c1.766-3.943,14.324-5.083,30.082-1.896S380.728,65.388,381.258,69.676z"/>
		<path d="M327.325,66.465c0,0,17.625,7.543,29.231,8.398c11.605,0.855,23.091,0.2,26.039,1.919
			c2.947,1.72,2.456,8.106,7.614,18.178s5.158,57.481,6.141,98.257c0.983,40.777-6.632,96.294-10.562,104.4
			c-3.93,8.105-45.936,11.3-45.936,11.3l5.035-21.249c0,0,40.103-51.043,37.953-93.714c-3.193-63.376-8.843-84.993-17.195-89.169
			s-28.097-4.753-28.894-7.369C335.955,94.8,327.325,66.465,327.325,66.465z"/>
		<path d="M179.448,308.917c2.702,3.192,56.252,3.438,84.501,3.93c28.249,0.49,68.29-0.49,70.009-3.93
			c1.72-3.44,2.794-22.109,2.794-22.109s0,17.44-73.785,18.669c-85.587,1.426-85.485-21.617-85.485-21.617
			S176.746,305.725,179.448,308.917z"/>
	</g>
</g>
</svg>
